%TF.GenerationSoftware,KiCad,Pcbnew,(6.0.4)*%
%TF.CreationDate,2022-09-19T22:09:22+05:30*%
%TF.ProjectId,fullsupply,66756c6c-7375-4707-906c-792e6b696361,rev?*%
%TF.SameCoordinates,Original*%
%TF.FileFunction,Soldermask,Top*%
%TF.FilePolarity,Negative*%
%FSLAX46Y46*%
G04 Gerber Fmt 4.6, Leading zero omitted, Abs format (unit mm)*
G04 Created by KiCad (PCBNEW (6.0.4)) date 2022-09-19 22:09:22*
%MOMM*%
%LPD*%
G01*
G04 APERTURE LIST*
G04 Aperture macros list*
%AMRoundRect*
0 Rectangle with rounded corners*
0 $1 Rounding radius*
0 $2 $3 $4 $5 $6 $7 $8 $9 X,Y pos of 4 corners*
0 Add a 4 corners polygon primitive as box body*
4,1,4,$2,$3,$4,$5,$6,$7,$8,$9,$2,$3,0*
0 Add four circle primitives for the rounded corners*
1,1,$1+$1,$2,$3*
1,1,$1+$1,$4,$5*
1,1,$1+$1,$6,$7*
1,1,$1+$1,$8,$9*
0 Add four rect primitives between the rounded corners*
20,1,$1+$1,$2,$3,$4,$5,0*
20,1,$1+$1,$4,$5,$6,$7,0*
20,1,$1+$1,$6,$7,$8,$9,0*
20,1,$1+$1,$8,$9,$2,$3,0*%
G04 Aperture macros list end*
%ADD10C,1.600000*%
%ADD11R,1.700000X1.700000*%
%ADD12O,1.700000X1.700000*%
%ADD13R,2.200000X2.200000*%
%ADD14O,2.200000X2.200000*%
%ADD15C,2.000000*%
%ADD16C,2.700000*%
%ADD17C,3.000000*%
%ADD18RoundRect,1.000000X2.500000X-1.000000X2.500000X1.000000X-2.500000X1.000000X-2.500000X-1.000000X0*%
%ADD19R,1.905000X2.000000*%
%ADD20O,1.905000X2.000000*%
G04 APERTURE END LIST*
D10*
%TO.C,C2*%
X146500000Y-97000000D03*
X141500000Y-97000000D03*
%TD*%
D11*
%TO.C,J4*%
X128840000Y-118000000D03*
D12*
X131380000Y-118000000D03*
X133920000Y-118000000D03*
X136460000Y-118000000D03*
X139000000Y-118000000D03*
X141540000Y-118000000D03*
X144080000Y-118000000D03*
X146620000Y-118000000D03*
%TD*%
D13*
%TO.C,D1*%
X104350000Y-81000000D03*
D14*
X91650000Y-81000000D03*
%TD*%
D11*
%TO.C,J3*%
X128975000Y-128000000D03*
D12*
X131515000Y-128000000D03*
X134055000Y-128000000D03*
X136595000Y-128000000D03*
X139135000Y-128000000D03*
X141675000Y-128000000D03*
X144215000Y-128000000D03*
X146755000Y-128000000D03*
%TD*%
D15*
%TO.C,U3*%
X133375000Y-145850000D03*
X133375000Y-140770000D03*
X133375000Y-135690000D03*
%TD*%
D10*
%TO.C,C1*%
X125500000Y-97000000D03*
X130500000Y-97000000D03*
%TD*%
D11*
%TO.C,J2*%
X129125000Y-110000000D03*
D12*
X131665000Y-110000000D03*
X134205000Y-110000000D03*
X136745000Y-110000000D03*
X139285000Y-110000000D03*
X141825000Y-110000000D03*
X144365000Y-110000000D03*
X146905000Y-110000000D03*
%TD*%
D16*
%TO.C,F1*%
X84000000Y-91250000D03*
D17*
X84000000Y-80000000D03*
X84000000Y-102500000D03*
%TD*%
D18*
%TO.C,SW1*%
X85000000Y-119000000D03*
X85000000Y-111500000D03*
%TD*%
D19*
%TO.C,U1*%
X133960000Y-89945000D03*
D20*
X136500000Y-89945000D03*
X139040000Y-89945000D03*
%TD*%
M02*
