%TF.GenerationSoftware,KiCad,Pcbnew,(6.0.4)*%
%TF.CreationDate,2022-09-19T22:09:22+05:30*%
%TF.ProjectId,fullsupply,66756c6c-7375-4707-906c-792e6b696361,rev?*%
%TF.SameCoordinates,Original*%
%TF.FileFunction,Copper,L2,Bot*%
%TF.FilePolarity,Positive*%
%FSLAX46Y46*%
G04 Gerber Fmt 4.6, Leading zero omitted, Abs format (unit mm)*
G04 Created by KiCad (PCBNEW (6.0.4)) date 2022-09-19 22:09:22*
%MOMM*%
%LPD*%
G01*
G04 APERTURE LIST*
G04 Aperture macros list*
%AMRoundRect*
0 Rectangle with rounded corners*
0 $1 Rounding radius*
0 $2 $3 $4 $5 $6 $7 $8 $9 X,Y pos of 4 corners*
0 Add a 4 corners polygon primitive as box body*
4,1,4,$2,$3,$4,$5,$6,$7,$8,$9,$2,$3,0*
0 Add four circle primitives for the rounded corners*
1,1,$1+$1,$2,$3*
1,1,$1+$1,$4,$5*
1,1,$1+$1,$6,$7*
1,1,$1+$1,$8,$9*
0 Add four rect primitives between the rounded corners*
20,1,$1+$1,$2,$3,$4,$5,0*
20,1,$1+$1,$4,$5,$6,$7,0*
20,1,$1+$1,$6,$7,$8,$9,0*
20,1,$1+$1,$8,$9,$2,$3,0*%
G04 Aperture macros list end*
%TA.AperFunction,ComponentPad*%
%ADD10C,1.600000*%
%TD*%
%TA.AperFunction,ComponentPad*%
%ADD11R,1.700000X1.700000*%
%TD*%
%TA.AperFunction,ComponentPad*%
%ADD12O,1.700000X1.700000*%
%TD*%
%TA.AperFunction,ComponentPad*%
%ADD13R,2.200000X2.200000*%
%TD*%
%TA.AperFunction,ComponentPad*%
%ADD14O,2.200000X2.200000*%
%TD*%
%TA.AperFunction,ComponentPad*%
%ADD15C,2.000000*%
%TD*%
%TA.AperFunction,SMDPad,CuDef*%
%ADD16R,10.000000X10.000000*%
%TD*%
%TA.AperFunction,ComponentPad*%
%ADD17C,3.000000*%
%TD*%
%TA.AperFunction,ComponentPad*%
%ADD18RoundRect,1.000000X2.500000X-1.000000X2.500000X1.000000X-2.500000X1.000000X-2.500000X-1.000000X0*%
%TD*%
%TA.AperFunction,SMDPad,CuDef*%
%ADD19R,10.000000X13.000000*%
%TD*%
%TA.AperFunction,ComponentPad*%
%ADD20R,1.905000X2.000000*%
%TD*%
%TA.AperFunction,ComponentPad*%
%ADD21O,1.905000X2.000000*%
%TD*%
%TA.AperFunction,Conductor*%
%ADD22C,2.000000*%
%TD*%
G04 APERTURE END LIST*
%TO.C,Buck Converter*%
G36*
X107901719Y-113030547D02*
G01*
X108088889Y-113122044D01*
X108098935Y-113128018D01*
X108378100Y-113365264D01*
X108654014Y-113717855D01*
X108893556Y-114136522D01*
X109063607Y-114571998D01*
X109085187Y-114651836D01*
X109167940Y-115131588D01*
X109199717Y-115665711D01*
X109179080Y-116182732D01*
X109104594Y-116611174D01*
X108943203Y-116966914D01*
X108664671Y-117335230D01*
X108323229Y-117644184D01*
X107967989Y-117840653D01*
X107898058Y-117864145D01*
X107597469Y-117938979D01*
X107329680Y-117969407D01*
X107137566Y-117953180D01*
X107064000Y-117888052D01*
X107066519Y-117870940D01*
X107117959Y-117723560D01*
X107222121Y-117478687D01*
X107361022Y-117179235D01*
X107407371Y-117081019D01*
X107751604Y-116175429D01*
X107943161Y-115282951D01*
X107979944Y-114418654D01*
X107859854Y-113597611D01*
X107799335Y-113325920D01*
X107766379Y-113110386D01*
X107771199Y-113010578D01*
X107782458Y-113005062D01*
X107901719Y-113030547D01*
G37*
G36*
X106836176Y-117306587D02*
G01*
X106426452Y-118000735D01*
X105930792Y-118686440D01*
X105376733Y-119333145D01*
X104791813Y-119910293D01*
X104203570Y-120387325D01*
X103639543Y-120733684D01*
X103476184Y-120806771D01*
X103184279Y-120904411D01*
X102954566Y-120942667D01*
X102781836Y-120923491D01*
X102394364Y-120790056D01*
X101942770Y-120541135D01*
X101450409Y-120190534D01*
X100940640Y-119752063D01*
X100213503Y-119004861D01*
X99485176Y-118066891D01*
X98918029Y-117088787D01*
X98514558Y-116074334D01*
X98498423Y-116020876D01*
X98423191Y-115680662D01*
X99115608Y-115680662D01*
X99161336Y-115748668D01*
X99326373Y-115816368D01*
X99596789Y-115864821D01*
X99741921Y-115882870D01*
X100030116Y-115956753D01*
X100174759Y-116075403D01*
X100192773Y-116249751D01*
X100140673Y-116341437D01*
X99957037Y-116451783D01*
X99696078Y-116510531D01*
X99412509Y-116500123D01*
X99293593Y-116481775D01*
X99223572Y-116497751D01*
X99274710Y-116582385D01*
X99281279Y-116589685D01*
X99447415Y-116668189D01*
X99708977Y-116702040D01*
X100001883Y-116688489D01*
X100262054Y-116624783D01*
X100300544Y-116607366D01*
X100473725Y-116441230D01*
X100508380Y-116211623D01*
X100396486Y-115958326D01*
X100357473Y-115910148D01*
X100148900Y-115750529D01*
X99887727Y-115670067D01*
X100735112Y-115670067D01*
X100737367Y-115816370D01*
X100775245Y-116076744D01*
X100800678Y-116211623D01*
X100850623Y-116476500D01*
X100914964Y-116634769D01*
X101026674Y-116709334D01*
X101392949Y-116709334D01*
X101989805Y-116709334D01*
X102285359Y-116700742D01*
X102486780Y-116671805D01*
X102534333Y-116624667D01*
X102483781Y-116580509D01*
X102324594Y-116540000D01*
X102317260Y-116539986D01*
X102068390Y-116509179D01*
X101967477Y-116411763D01*
X102002648Y-116236549D01*
X102094098Y-116085280D01*
X102198968Y-116050900D01*
X102343090Y-116143798D01*
X102553975Y-116370667D01*
X102669130Y-116492083D01*
X102863610Y-116648241D01*
X103011861Y-116709334D01*
X103018266Y-116709245D01*
X103074155Y-116682594D01*
X103045415Y-116594899D01*
X102920474Y-116426462D01*
X102687764Y-116157589D01*
X102591473Y-116052304D01*
X102587807Y-116048635D01*
X103292361Y-116048635D01*
X103422768Y-116217901D01*
X103463064Y-116251809D01*
X103559851Y-116375798D01*
X103521553Y-116475647D01*
X103453523Y-116558070D01*
X103441579Y-116669137D01*
X103487766Y-116682594D01*
X103579544Y-116709334D01*
X103717784Y-116668585D01*
X103889000Y-116540000D01*
X104043868Y-116430679D01*
X104277417Y-116370667D01*
X104448364Y-116401450D01*
X104566333Y-116540000D01*
X104611565Y-116637001D01*
X104723457Y-116714467D01*
X104820566Y-116656763D01*
X104847124Y-116476500D01*
X104839461Y-116418563D01*
X104805194Y-116318642D01*
X104717504Y-116260545D01*
X104537844Y-116227150D01*
X104227666Y-116201334D01*
X104106502Y-116191818D01*
X103826000Y-116156068D01*
X103678111Y-116105447D01*
X103635000Y-116032000D01*
X103635645Y-116021017D01*
X103675521Y-115971440D01*
X105044650Y-115971440D01*
X105060228Y-116215426D01*
X105190020Y-116462387D01*
X105202685Y-116476500D01*
X105236993Y-116514732D01*
X105374171Y-116607324D01*
X105581973Y-116661574D01*
X105909687Y-116693297D01*
X106049342Y-116701955D01*
X106290682Y-116709985D01*
X106416252Y-116689438D01*
X106463865Y-116628275D01*
X106471333Y-116514455D01*
X106458830Y-116328186D01*
X106384216Y-116109508D01*
X106250608Y-116032000D01*
X106174418Y-116076851D01*
X106132666Y-116238670D01*
X106113101Y-116381146D01*
X106045934Y-116498944D01*
X105944563Y-116527232D01*
X105726137Y-116499836D01*
X105506319Y-116406631D01*
X105364087Y-116273706D01*
X105321332Y-116159036D01*
X105363798Y-115995853D01*
X105560884Y-115895563D01*
X105910200Y-115859974D01*
X106106654Y-115857041D01*
X106246807Y-115842005D01*
X106261200Y-115802674D01*
X106175000Y-115726347D01*
X106153589Y-115711720D01*
X105934926Y-115646801D01*
X105644651Y-115640945D01*
X105357042Y-115689666D01*
X105146375Y-115788478D01*
X105044650Y-115971440D01*
X103675521Y-115971440D01*
X103694759Y-115947522D01*
X103868963Y-115896632D01*
X104185333Y-115859878D01*
X104268670Y-115852967D01*
X104519856Y-115828245D01*
X104627843Y-115803039D01*
X104613407Y-115767483D01*
X104497321Y-115711712D01*
X104211712Y-115627864D01*
X103910556Y-115611830D01*
X103640373Y-115658924D01*
X103428833Y-115756113D01*
X103303606Y-115890361D01*
X103292361Y-116048635D01*
X102587807Y-116048635D01*
X102367613Y-115828281D01*
X102188814Y-115677607D01*
X102087021Y-115628423D01*
X102083093Y-115629517D01*
X101986895Y-115718643D01*
X101844656Y-115915614D01*
X101685662Y-116180167D01*
X101478864Y-116554017D01*
X101392949Y-116709334D01*
X101026674Y-116709334D01*
X101034709Y-116709191D01*
X101105653Y-116675052D01*
X101123924Y-116554017D01*
X101096257Y-116307167D01*
X101018767Y-115935569D01*
X100913070Y-115691628D01*
X100786265Y-115608667D01*
X100766601Y-115612528D01*
X100735112Y-115670067D01*
X99887727Y-115670067D01*
X99846738Y-115657439D01*
X99415778Y-115618684D01*
X99203117Y-115631290D01*
X99115608Y-115680662D01*
X98423191Y-115680662D01*
X98381087Y-115490261D01*
X98320099Y-114923279D01*
X98316084Y-114368718D01*
X98369668Y-113875363D01*
X98481475Y-113492000D01*
X98612596Y-113267062D01*
X98803288Y-113018480D01*
X99014118Y-112791013D01*
X99207647Y-112624972D01*
X99346439Y-112560667D01*
X99371085Y-112569258D01*
X99493942Y-112662802D01*
X99660993Y-112826165D01*
X99968944Y-113104139D01*
X100430058Y-113426209D01*
X100946786Y-113713762D01*
X101459876Y-113930425D01*
X101911369Y-114046546D01*
X102551950Y-114123927D01*
X103229053Y-114129826D01*
X103879304Y-114064304D01*
X104439333Y-113927427D01*
X104898732Y-113735458D01*
X105581581Y-113342367D01*
X106208429Y-112854972D01*
X106532809Y-112561914D01*
X106818023Y-112754120D01*
X106934381Y-112851283D01*
X107151773Y-113106399D01*
X107341284Y-113411788D01*
X107454324Y-113652595D01*
X107533192Y-113901674D01*
X107570746Y-114185360D01*
X107580854Y-114570744D01*
X107555941Y-115100915D01*
X107453550Y-115704372D01*
X107260707Y-116335646D01*
X107186064Y-116514455D01*
X106965351Y-117043175D01*
X106836176Y-117306587D01*
G37*
G36*
X104546492Y-110433978D02*
G01*
X104799166Y-110626323D01*
X104799744Y-110627007D01*
X104927514Y-110839404D01*
X104908823Y-111033256D01*
X104739515Y-111252182D01*
X104739347Y-111252350D01*
X104496082Y-111424654D01*
X104254408Y-111434960D01*
X103985085Y-111284522D01*
X103921117Y-111228577D01*
X103779702Y-110997373D01*
X103803113Y-110756960D01*
X103991169Y-110530026D01*
X104266477Y-110401698D01*
X104546492Y-110433978D01*
G37*
G36*
X107723241Y-110962997D02*
G01*
X107699000Y-111841000D01*
X107021666Y-111865552D01*
X106344333Y-111890104D01*
X106005666Y-112300133D01*
X105666280Y-112657813D01*
X105040033Y-113122632D01*
X104316997Y-113459213D01*
X103515876Y-113657357D01*
X102916545Y-113695088D01*
X102166405Y-113620770D01*
X101433626Y-113428127D01*
X100779345Y-113128962D01*
X100766614Y-113121372D01*
X100520486Y-112944412D01*
X100228387Y-112693941D01*
X99950813Y-112421611D01*
X99486333Y-111927609D01*
X98879755Y-111926638D01*
X98857023Y-111926552D01*
X98551485Y-111915492D01*
X98316896Y-111889674D01*
X98202421Y-111854346D01*
X98167878Y-111741809D01*
X98145816Y-111506788D01*
X98136299Y-111191743D01*
X98138428Y-110838209D01*
X98151303Y-110487719D01*
X98160567Y-110362990D01*
X99997106Y-110362990D01*
X100053608Y-110970691D01*
X100263184Y-111538889D01*
X100613842Y-112048706D01*
X101093589Y-112481265D01*
X101690433Y-112817688D01*
X101802908Y-112861419D01*
X102268574Y-112977218D01*
X102799899Y-113035264D01*
X103323997Y-113030624D01*
X103767982Y-112958360D01*
X103866198Y-112928183D01*
X104337874Y-112728247D01*
X104782466Y-112460466D01*
X105129164Y-112166054D01*
X105326695Y-111920718D01*
X105587779Y-111462463D01*
X105767987Y-110965509D01*
X105851165Y-110479188D01*
X105821161Y-110052832D01*
X105813573Y-110020047D01*
X105788893Y-109905870D01*
X105757826Y-109825593D01*
X105697623Y-109779394D01*
X105585530Y-109767449D01*
X105398797Y-109789936D01*
X105114672Y-109847034D01*
X104710403Y-109938919D01*
X104163240Y-110065769D01*
X102913480Y-110353947D01*
X102014189Y-110150689D01*
X101715051Y-110079644D01*
X101385600Y-109992260D01*
X101146301Y-109917891D01*
X101034930Y-109867463D01*
X101001651Y-109790448D01*
X101019595Y-109583577D01*
X101110601Y-109312981D01*
X101258051Y-109023504D01*
X101445327Y-108759992D01*
X101713203Y-108509878D01*
X102160643Y-108266826D01*
X102660021Y-108148621D01*
X103176570Y-108153732D01*
X103675522Y-108280630D01*
X104122110Y-108527783D01*
X104481567Y-108893660D01*
X104682220Y-109117328D01*
X104888364Y-109244106D01*
X105054169Y-109257425D01*
X105151940Y-109166552D01*
X105153980Y-108980752D01*
X105032593Y-108709293D01*
X104856350Y-108480405D01*
X104466563Y-108151397D01*
X103983892Y-107888085D01*
X103453886Y-107713332D01*
X102922097Y-107650000D01*
X102609816Y-107669627D01*
X102019349Y-107817113D01*
X101488056Y-108092609D01*
X101041608Y-108476550D01*
X100705679Y-108949369D01*
X100505938Y-109491500D01*
X100486636Y-109569250D01*
X100402110Y-109724425D01*
X100253399Y-109766667D01*
X100214858Y-109767884D01*
X100111043Y-109805389D01*
X100051752Y-109927046D01*
X100011845Y-110175397D01*
X99997106Y-110362990D01*
X98160567Y-110362990D01*
X98174024Y-110181809D01*
X98205692Y-109962013D01*
X98245408Y-109869864D01*
X98252631Y-109865971D01*
X98293436Y-109763821D01*
X98321656Y-109522211D01*
X98338039Y-109131289D01*
X98343333Y-108581203D01*
X98343949Y-108385666D01*
X98349909Y-107951230D01*
X98361190Y-107584844D01*
X98376545Y-107320268D01*
X98394725Y-107191258D01*
X98427947Y-107140610D01*
X98582098Y-107067698D01*
X98770867Y-107073683D01*
X98909836Y-107163167D01*
X98913831Y-107171032D01*
X98943030Y-107313454D01*
X98972748Y-107584420D01*
X98999716Y-107948350D01*
X99020666Y-108369667D01*
X99063000Y-109470334D01*
X99335208Y-108895650D01*
X99459287Y-108654941D01*
X99914058Y-108001454D01*
X100480055Y-107456363D01*
X101135835Y-107037773D01*
X101859960Y-106763786D01*
X101863940Y-106762752D01*
X102665984Y-106634511D01*
X103454219Y-106660041D01*
X104208181Y-106830391D01*
X104907402Y-107136610D01*
X105531417Y-107569745D01*
X106059758Y-108120846D01*
X106471959Y-108780960D01*
X106625589Y-109091769D01*
X106726940Y-109278543D01*
X106783605Y-109343822D01*
X106809759Y-109303632D01*
X106819575Y-109174000D01*
X106824683Y-109058550D01*
X106839564Y-108768642D01*
X106860239Y-108394614D01*
X106883875Y-107988667D01*
X106937000Y-107099667D01*
X107445000Y-107099667D01*
X107468406Y-108397231D01*
X107477699Y-108795775D01*
X107496988Y-109239154D01*
X107525476Y-109553505D01*
X107565562Y-109762522D01*
X107619647Y-109889894D01*
X107674835Y-110009727D01*
X107713437Y-110213926D01*
X107726473Y-110479188D01*
X107728513Y-110520702D01*
X107723241Y-110962997D01*
G37*
G36*
X98064718Y-113016242D02*
G01*
X98064196Y-113122277D01*
X98026978Y-113343477D01*
X97960575Y-113634535D01*
X97949922Y-113677793D01*
X97843059Y-114483208D01*
X97895928Y-115340606D01*
X98108119Y-116247167D01*
X98479221Y-117200067D01*
X98517446Y-117283517D01*
X98644369Y-117571943D01*
X98733209Y-117791779D01*
X98766666Y-117900850D01*
X98766385Y-117905954D01*
X98684920Y-117964973D01*
X98488499Y-117974393D01*
X98220688Y-117936634D01*
X97925051Y-117854116D01*
X97559891Y-117691034D01*
X97142991Y-117371514D01*
X96851633Y-116946212D01*
X96681646Y-116408359D01*
X96628855Y-115751183D01*
X96637795Y-115496177D01*
X96724056Y-114860681D01*
X96891536Y-114274936D01*
X97127794Y-113768100D01*
X97420384Y-113369333D01*
X97756865Y-113107795D01*
X97789100Y-113091604D01*
X97967761Y-113020587D01*
X98063347Y-113014458D01*
X98064718Y-113016242D01*
G37*
G36*
X101700470Y-110444000D02*
G01*
X101875269Y-110566217D01*
X102009270Y-110706062D01*
X102025198Y-110735111D01*
X102055162Y-110962115D01*
X101970351Y-111193906D01*
X101795340Y-111355844D01*
X101633413Y-111421570D01*
X101390294Y-111439470D01*
X101151541Y-111324955D01*
X101150976Y-111324559D01*
X101001556Y-111129094D01*
X100971197Y-110878484D01*
X101053776Y-110631437D01*
X101243166Y-110446660D01*
X101369286Y-110383483D01*
X101520520Y-110364235D01*
X101700470Y-110444000D01*
G37*
%TD*%
D10*
%TO.P,C2,1*%
%TO.N,5V*%
X146500000Y-97000000D03*
%TO.P,C2,2*%
%TO.N,GND*%
X141500000Y-97000000D03*
%TD*%
D11*
%TO.P,J4,1,Pin_1*%
%TO.N,GND*%
X128840000Y-118000000D03*
D12*
%TO.P,J4,2,Pin_2*%
X131380000Y-118000000D03*
%TO.P,J4,3,Pin_3*%
X133920000Y-118000000D03*
%TO.P,J4,4,Pin_4*%
X136460000Y-118000000D03*
%TO.P,J4,5,Pin_5*%
X139000000Y-118000000D03*
%TO.P,J4,6,Pin_6*%
X141540000Y-118000000D03*
%TO.P,J4,7,Pin_7*%
X144080000Y-118000000D03*
%TO.P,J4,8,Pin_8*%
X146620000Y-118000000D03*
%TD*%
D13*
%TO.P,D1,1,K*%
%TO.N,MVCC*%
X104350000Y-81000000D03*
D14*
%TO.P,D1,2,A*%
%TO.N,Net-(D1-Pad2)*%
X91650000Y-81000000D03*
%TD*%
D11*
%TO.P,J3,1,Pin_1*%
%TO.N,VCC12+*%
X128975000Y-128000000D03*
D12*
%TO.P,J3,2,Pin_2*%
X131515000Y-128000000D03*
%TO.P,J3,3,Pin_3*%
X134055000Y-128000000D03*
%TO.P,J3,4,Pin_4*%
X136595000Y-128000000D03*
%TO.P,J3,5,Pin_5*%
X139135000Y-128000000D03*
%TO.P,J3,6,Pin_6*%
X141675000Y-128000000D03*
%TO.P,J3,7,Pin_7*%
X144215000Y-128000000D03*
%TO.P,J3,8,Pin_8*%
X146755000Y-128000000D03*
%TD*%
D15*
%TO.P,U3,1,VCC*%
%TO.N,5V*%
X133375000Y-145850000D03*
%TO.P,U3,2,GND*%
%TO.N,GND*%
X133375000Y-140770000D03*
%TO.P,U3,3,VIN*%
%TO.N,VCC12+*%
X133375000Y-135690000D03*
%TD*%
D10*
%TO.P,C1,1*%
%TO.N,MVCC*%
X125500000Y-97000000D03*
%TO.P,C1,2*%
%TO.N,GND*%
X130500000Y-97000000D03*
%TD*%
D11*
%TO.P,J2,1,Pin_1*%
%TO.N,5V*%
X129125000Y-110000000D03*
D12*
%TO.P,J2,2,Pin_2*%
X131665000Y-110000000D03*
%TO.P,J2,3,Pin_3*%
X134205000Y-110000000D03*
%TO.P,J2,4,Pin_4*%
X136745000Y-110000000D03*
%TO.P,J2,5,Pin_5*%
X139285000Y-110000000D03*
%TO.P,J2,6,Pin_6*%
X141825000Y-110000000D03*
%TO.P,J2,7,Pin_7*%
X144365000Y-110000000D03*
%TO.P,J2,8,Pin_8*%
X146905000Y-110000000D03*
%TD*%
D16*
%TO.P,J1,1,Pin_1*%
%TO.N,Net-(J1-Pad1)*%
X85000000Y-132500000D03*
%TO.P,J1,2,Pin_2*%
%TO.N,GND*%
X85000000Y-145500000D03*
%TD*%
D17*
%TO.P,F1,1*%
%TO.N,Net-(D1-Pad2)*%
X84000000Y-80000000D03*
%TO.P,F1,2*%
%TO.N,Net-(F1-Pad2)*%
X84000000Y-102500000D03*
%TD*%
D18*
%TO.P,SW1,1*%
%TO.N,Net-(J1-Pad1)*%
X85000000Y-119000000D03*
%TO.P,SW1,2*%
%TO.N,Net-(F1-Pad2)*%
X85000000Y-111500000D03*
%TD*%
D19*
%TO.P,U2,1*%
%TO.N,MVCC*%
X116000000Y-96500000D03*
%TO.P,U2,2*%
%TO.N,GND*%
X103000000Y-96500000D03*
%TO.P,U2,3*%
%TO.N,VCC12+*%
X116000000Y-136500000D03*
%TO.P,U2,4*%
%TO.N,GND*%
X103000000Y-136500000D03*
%TD*%
D20*
%TO.P,U1,1,VI*%
%TO.N,MVCC*%
X133960000Y-89945000D03*
D21*
%TO.P,U1,2,GND*%
%TO.N,GND*%
X136500000Y-89945000D03*
%TO.P,U1,3,VO*%
%TO.N,5V*%
X139040000Y-89945000D03*
%TD*%
D22*
%TO.N,GND*%
X136500000Y-89945000D02*
X136500000Y-96500000D01*
X136000000Y-97000000D02*
X130500000Y-97000000D01*
X136500000Y-96500000D02*
X136000000Y-97000000D01*
%TD*%
%TA.AperFunction,Conductor*%
%TO.N,MVCC*%
G36*
X134942121Y-77020002D02*
G01*
X134988614Y-77073658D01*
X135000000Y-77126000D01*
X135000000Y-89755474D01*
X134998161Y-89776920D01*
X134992821Y-89807836D01*
X134991500Y-89836925D01*
X134991500Y-92874000D01*
X134971498Y-92942121D01*
X134917842Y-92988614D01*
X134865500Y-93000000D01*
X127000000Y-93000000D01*
X127000000Y-98874000D01*
X126979998Y-98942121D01*
X126926342Y-98988614D01*
X126874000Y-99000000D01*
X121000000Y-99000000D01*
X121000000Y-103874000D01*
X120979998Y-103942121D01*
X120926342Y-103988614D01*
X120874000Y-104000000D01*
X110126000Y-104000000D01*
X110057879Y-103979998D01*
X110011386Y-103926342D01*
X110000000Y-103874000D01*
X110000000Y-87000000D01*
X98126000Y-87000000D01*
X98057879Y-86979998D01*
X98011386Y-86926342D01*
X98000000Y-86874000D01*
X98000000Y-77126000D01*
X98020002Y-77057879D01*
X98073658Y-77011386D01*
X98126000Y-77000000D01*
X134874000Y-77000000D01*
X134942121Y-77020002D01*
G37*
%TD.AperFunction*%
%TD*%
%TA.AperFunction,Conductor*%
%TO.N,VCC12+*%
G36*
X149942121Y-124020002D02*
G01*
X149988614Y-124073658D01*
X150000000Y-124126000D01*
X150000000Y-133874000D01*
X149979998Y-133942121D01*
X149926342Y-133988614D01*
X149874000Y-134000000D01*
X138000000Y-134000000D01*
X135036905Y-136963095D01*
X134974593Y-136997121D01*
X134947810Y-137000000D01*
X122000000Y-137000000D01*
X122000000Y-144874000D01*
X121979998Y-144942121D01*
X121926342Y-144988614D01*
X121874000Y-145000000D01*
X110126000Y-145000000D01*
X110057879Y-144979998D01*
X110011386Y-144926342D01*
X110000000Y-144874000D01*
X110000000Y-124126000D01*
X110020002Y-124057879D01*
X110073658Y-124011386D01*
X110126000Y-124000000D01*
X149874000Y-124000000D01*
X149942121Y-124020002D01*
G37*
%TD.AperFunction*%
%TD*%
%TA.AperFunction,Conductor*%
%TO.N,Net-(D1-Pad2)*%
G36*
X95942121Y-77020002D02*
G01*
X95988614Y-77073658D01*
X96000000Y-77126000D01*
X96000000Y-84898926D01*
X95979998Y-84967047D01*
X95926342Y-85013540D01*
X95901333Y-85021926D01*
X87017684Y-86996070D01*
X87017683Y-86996070D01*
X87000000Y-87000000D01*
X87000000Y-91874000D01*
X86979998Y-91942121D01*
X86926342Y-91988614D01*
X86874000Y-92000000D01*
X85884337Y-92000000D01*
X85816216Y-91979998D01*
X85769723Y-91926342D01*
X85759619Y-91856068D01*
X85765528Y-91832044D01*
X85765781Y-91831329D01*
X85797425Y-91741720D01*
X85849581Y-91477100D01*
X85858782Y-91292277D01*
X85862764Y-91212292D01*
X85862764Y-91212286D01*
X85862991Y-91207723D01*
X85837375Y-90939231D01*
X85792042Y-90753967D01*
X85774355Y-90681688D01*
X85773269Y-90677250D01*
X85672015Y-90427267D01*
X85535735Y-90194518D01*
X85417928Y-90047208D01*
X85370136Y-89987447D01*
X85370135Y-89987445D01*
X85367284Y-89983881D01*
X85170191Y-89799766D01*
X84948584Y-89646032D01*
X84944501Y-89644001D01*
X84944498Y-89643999D01*
X84779606Y-89561967D01*
X84707106Y-89525899D01*
X84702772Y-89524478D01*
X84702769Y-89524477D01*
X84455147Y-89443302D01*
X84455141Y-89443301D01*
X84450814Y-89441882D01*
X84446322Y-89441102D01*
X84188860Y-89396399D01*
X84188852Y-89396398D01*
X84185079Y-89395743D01*
X84173817Y-89395182D01*
X84101422Y-89391578D01*
X84101414Y-89391578D01*
X84099851Y-89391500D01*
X83931488Y-89391500D01*
X83929220Y-89391665D01*
X83929208Y-89391665D01*
X83798116Y-89401177D01*
X83730996Y-89406047D01*
X83726541Y-89407031D01*
X83726538Y-89407031D01*
X83472088Y-89463209D01*
X83472084Y-89463210D01*
X83467628Y-89464194D01*
X83341520Y-89511972D01*
X83219682Y-89558132D01*
X83219679Y-89558133D01*
X83215412Y-89559750D01*
X83211421Y-89561967D01*
X82985001Y-89687732D01*
X82979632Y-89690714D01*
X82765227Y-89854343D01*
X82576688Y-90047208D01*
X82417966Y-90265270D01*
X82415844Y-90269304D01*
X82294510Y-90499921D01*
X82294507Y-90499927D01*
X82292385Y-90503961D01*
X82290865Y-90508266D01*
X82290863Y-90508270D01*
X82212400Y-90730459D01*
X82202575Y-90758280D01*
X82150419Y-91022900D01*
X82150192Y-91027453D01*
X82150192Y-91027456D01*
X82140991Y-91212292D01*
X82137009Y-91292277D01*
X82162625Y-91560769D01*
X82163710Y-91565203D01*
X82163711Y-91565209D01*
X82210558Y-91756657D01*
X82226731Y-91822750D01*
X82228445Y-91826981D01*
X82229849Y-91831329D01*
X82228822Y-91831661D01*
X82235366Y-91897337D01*
X82203093Y-91960574D01*
X82141755Y-91996325D01*
X82111546Y-92000000D01*
X78126000Y-92000000D01*
X78057879Y-91979998D01*
X78011386Y-91926342D01*
X78000000Y-91874000D01*
X78000000Y-77126000D01*
X78020002Y-77057879D01*
X78073658Y-77011386D01*
X78126000Y-77000000D01*
X95874000Y-77000000D01*
X95942121Y-77020002D01*
G37*
%TD.AperFunction*%
%TD*%
%TA.AperFunction,Conductor*%
%TO.N,GND*%
G36*
X107942121Y-89020002D02*
G01*
X107988614Y-89073658D01*
X108000000Y-89126000D01*
X108000000Y-106000000D01*
X121000000Y-106000000D01*
X123000000Y-104000000D01*
X123000000Y-101126000D01*
X123020002Y-101057879D01*
X123073658Y-101011386D01*
X123126000Y-101000000D01*
X129000000Y-101000000D01*
X129000000Y-95126000D01*
X129020002Y-95057879D01*
X129073658Y-95011386D01*
X129126000Y-95000000D01*
X142874000Y-95000000D01*
X142942121Y-95020002D01*
X142988614Y-95073658D01*
X143000000Y-95126000D01*
X143000000Y-104874000D01*
X142979998Y-104942121D01*
X142926342Y-104988614D01*
X142874000Y-105000000D01*
X127000000Y-105000000D01*
X124000000Y-108000000D01*
X124000000Y-115000000D01*
X149874000Y-115000000D01*
X149942121Y-115020002D01*
X149988614Y-115073658D01*
X150000000Y-115126000D01*
X150000000Y-121874000D01*
X149979998Y-121942121D01*
X149926342Y-121988614D01*
X149874000Y-122000000D01*
X108000000Y-122000000D01*
X108000000Y-147000000D01*
X124000000Y-147000000D01*
X124000000Y-139126000D01*
X124020002Y-139057879D01*
X124073658Y-139011386D01*
X124126000Y-139000000D01*
X135873124Y-139000000D01*
X135941245Y-139020002D01*
X135987738Y-139073658D01*
X135999121Y-139126872D01*
X135993111Y-139994135D01*
X135979863Y-141905753D01*
X135959389Y-141973734D01*
X135905413Y-142019854D01*
X135855104Y-142030874D01*
X131790359Y-142070752D01*
X128952920Y-142098590D01*
X128952919Y-142098590D01*
X128934806Y-142098768D01*
X128934886Y-142112189D01*
X128934886Y-142112190D01*
X128999311Y-152885655D01*
X128979716Y-152953894D01*
X128926340Y-153000707D01*
X128874508Y-153012402D01*
X124076576Y-153057890D01*
X124074927Y-153057895D01*
X121435736Y-153048390D01*
X108000000Y-153000000D01*
X78126000Y-153000000D01*
X78057879Y-152979998D01*
X78011386Y-152926342D01*
X78000000Y-152874000D01*
X78000000Y-140126000D01*
X78020002Y-140057879D01*
X78073658Y-140011386D01*
X78126000Y-140000000D01*
X94000000Y-140000000D01*
X94000000Y-115764727D01*
X95826864Y-115764727D01*
X95829792Y-115801175D01*
X95837538Y-115902023D01*
X95837899Y-115903190D01*
X95838116Y-115904792D01*
X95878543Y-116408050D01*
X95879115Y-116415168D01*
X95879404Y-116430664D01*
X95877984Y-116463697D01*
X95886242Y-116508961D01*
X95887061Y-116514096D01*
X95887332Y-116517467D01*
X95888004Y-116520925D01*
X95888004Y-116520927D01*
X95894793Y-116555873D01*
X95895056Y-116557271D01*
X95903076Y-116601234D01*
X95904100Y-116604474D01*
X95905198Y-116609444D01*
X95912913Y-116649158D01*
X95928887Y-116685387D01*
X95933734Y-116698238D01*
X96080489Y-117162587D01*
X96082380Y-117169193D01*
X96098638Y-117232452D01*
X96101858Y-117238713D01*
X96101858Y-117238714D01*
X96127590Y-117288754D01*
X96130697Y-117295247D01*
X96156389Y-117353116D01*
X96160605Y-117358764D01*
X96199519Y-117410897D01*
X96202494Y-117415057D01*
X96473221Y-117810243D01*
X96475502Y-117813691D01*
X96516355Y-117877738D01*
X96521361Y-117882686D01*
X96521365Y-117882691D01*
X96554213Y-117915158D01*
X96560989Y-117922404D01*
X96595797Y-117962710D01*
X96601468Y-117966889D01*
X96601469Y-117966890D01*
X96662973Y-118012212D01*
X96664855Y-118013626D01*
X97001694Y-118271786D01*
X97030238Y-118293663D01*
X97041222Y-118303133D01*
X97062588Y-118323814D01*
X97062591Y-118323816D01*
X97067648Y-118328711D01*
X97106827Y-118352499D01*
X97107948Y-118353221D01*
X97108781Y-118353860D01*
X97145615Y-118376051D01*
X97187151Y-118401271D01*
X97188104Y-118401697D01*
X97189261Y-118402348D01*
X97217649Y-118419451D01*
X97217663Y-118419458D01*
X97223691Y-118423089D01*
X97230379Y-118425297D01*
X97230380Y-118425297D01*
X97264823Y-118436666D01*
X97276708Y-118441268D01*
X97462307Y-118524157D01*
X97517017Y-118548591D01*
X97526568Y-118553380D01*
X97532104Y-118557343D01*
X97538597Y-118560072D01*
X97538601Y-118560074D01*
X97607299Y-118588945D01*
X97609763Y-118590012D01*
X97639850Y-118603449D01*
X97643195Y-118604514D01*
X97645731Y-118605481D01*
X97653153Y-118608216D01*
X97657342Y-118609977D01*
X97657356Y-118609982D01*
X97660992Y-118611510D01*
X97682449Y-118617499D01*
X97692534Y-118620314D01*
X97696895Y-118621617D01*
X97760961Y-118642021D01*
X97760966Y-118642022D01*
X97767676Y-118644159D01*
X97774695Y-118644756D01*
X97781606Y-118646133D01*
X97781557Y-118646377D01*
X97793871Y-118648599D01*
X97919228Y-118683588D01*
X97921927Y-118684497D01*
X97923809Y-118685499D01*
X97929505Y-118687049D01*
X97929519Y-118687054D01*
X98014408Y-118710158D01*
X98015090Y-118710346D01*
X98048971Y-118719802D01*
X98050646Y-118720073D01*
X98052690Y-118720575D01*
X98058710Y-118722214D01*
X98062638Y-118722768D01*
X98062639Y-118722768D01*
X98097395Y-118727668D01*
X98099940Y-118728053D01*
X98174447Y-118740115D01*
X98174452Y-118740115D01*
X98181400Y-118741240D01*
X98187684Y-118740844D01*
X98197317Y-118741756D01*
X98238767Y-118747600D01*
X98302421Y-118756575D01*
X98322200Y-118761011D01*
X98330072Y-118763456D01*
X98330074Y-118763456D01*
X98336802Y-118765546D01*
X98362910Y-118767580D01*
X98398248Y-118770333D01*
X98406048Y-118771185D01*
X98408567Y-118771540D01*
X98421454Y-118773357D01*
X98431905Y-118773654D01*
X98442914Y-118773966D01*
X98449124Y-118774296D01*
X98472231Y-118776096D01*
X98472234Y-118776096D01*
X98476187Y-118776404D01*
X98490968Y-118775695D01*
X98500555Y-118775601D01*
X98555553Y-118777162D01*
X98576963Y-118772933D01*
X98595342Y-118770689D01*
X98633843Y-118768843D01*
X98636727Y-118768856D01*
X98638860Y-118769220D01*
X98644837Y-118768894D01*
X98644843Y-118768894D01*
X98732344Y-118764121D01*
X98733170Y-118764079D01*
X98747068Y-118763412D01*
X98768370Y-118762391D01*
X98770077Y-118762116D01*
X98772216Y-118761947D01*
X98811148Y-118759823D01*
X98811150Y-118759823D01*
X98818184Y-118759439D01*
X98851790Y-118749852D01*
X98866321Y-118746622D01*
X98893867Y-118742187D01*
X98893868Y-118742187D01*
X98898183Y-118741492D01*
X98898184Y-118741492D01*
X98899165Y-118741334D01*
X98900816Y-118741068D01*
X98900890Y-118741530D01*
X98967444Y-118742482D01*
X99029741Y-118785581D01*
X99575324Y-119488206D01*
X99576389Y-119489597D01*
X99604443Y-119526798D01*
X99608320Y-119530781D01*
X99608736Y-119531234D01*
X99608927Y-119531480D01*
X99702503Y-119627608D01*
X99702575Y-119627655D01*
X99702727Y-119627794D01*
X100354161Y-120297205D01*
X100357348Y-120300604D01*
X100377525Y-120322934D01*
X100377532Y-120322940D01*
X100380185Y-120325877D01*
X100387494Y-120332164D01*
X100395609Y-120339796D01*
X100395985Y-120340183D01*
X100395990Y-120340188D01*
X100398443Y-120342708D01*
X100401165Y-120344942D01*
X100425975Y-120365306D01*
X100428149Y-120367132D01*
X100915431Y-120786261D01*
X100918628Y-120789107D01*
X100944767Y-120813189D01*
X100951516Y-120817995D01*
X100957179Y-120822432D01*
X100957180Y-120822430D01*
X100959964Y-120824566D01*
X100962638Y-120826866D01*
X100982105Y-120840146D01*
X100993406Y-120847855D01*
X100995487Y-120849306D01*
X101470986Y-121187899D01*
X101472059Y-121188671D01*
X101511929Y-121217706D01*
X101543120Y-121234899D01*
X101543483Y-121235100D01*
X101584103Y-121257666D01*
X101632495Y-121284549D01*
X101633617Y-121284876D01*
X101635002Y-121285545D01*
X101798712Y-121375782D01*
X101935741Y-121451313D01*
X101954209Y-121463738D01*
X101960322Y-121468689D01*
X101966645Y-121471800D01*
X101966644Y-121471800D01*
X102022428Y-121499252D01*
X102027613Y-121501955D01*
X102044402Y-121511208D01*
X102044407Y-121511210D01*
X102047485Y-121512907D01*
X102055706Y-121516306D01*
X102060535Y-121518303D01*
X102068024Y-121521690D01*
X102080090Y-121527627D01*
X102085763Y-121530419D01*
X102106560Y-121537581D01*
X102113650Y-121540265D01*
X102171459Y-121564167D01*
X102178399Y-121565349D01*
X102178403Y-121565350D01*
X102185646Y-121566583D01*
X102205516Y-121571659D01*
X102422220Y-121646286D01*
X102464729Y-121660925D01*
X102479594Y-121667134D01*
X102507177Y-121680787D01*
X102547838Y-121690575D01*
X102551921Y-121691558D01*
X102557139Y-121693081D01*
X102557171Y-121692968D01*
X102560561Y-121693928D01*
X102563882Y-121695071D01*
X102567306Y-121695836D01*
X102567322Y-121695841D01*
X102599885Y-121703121D01*
X102601869Y-121703581D01*
X102643102Y-121713507D01*
X102647044Y-121713945D01*
X102649957Y-121714455D01*
X102655701Y-121715600D01*
X102687926Y-121722804D01*
X102687930Y-121722804D01*
X102694803Y-121724341D01*
X102701846Y-121724317D01*
X102701849Y-121724317D01*
X102732111Y-121724212D01*
X102746450Y-121724980D01*
X102831794Y-121734455D01*
X102840949Y-121735814D01*
X102889410Y-121744835D01*
X102889413Y-121744835D01*
X102896342Y-121746125D01*
X102968374Y-121743288D01*
X102973160Y-121743190D01*
X103028227Y-121743128D01*
X103038224Y-121743117D01*
X103045271Y-121743109D01*
X103052139Y-121741540D01*
X103052143Y-121741540D01*
X103106659Y-121729089D01*
X103114014Y-121727638D01*
X103134736Y-121724187D01*
X103227869Y-121708677D01*
X103238993Y-121707904D01*
X103238955Y-121707455D01*
X103245979Y-121706853D01*
X103253014Y-121707038D01*
X103259916Y-121705660D01*
X103259922Y-121705659D01*
X103327857Y-121692090D01*
X103331774Y-121691372D01*
X103360324Y-121686618D01*
X103367522Y-121684574D01*
X103377257Y-121682224D01*
X103386223Y-121680433D01*
X103390113Y-121679656D01*
X103393866Y-121678401D01*
X103393872Y-121678399D01*
X103417052Y-121670645D01*
X103422598Y-121668931D01*
X103482596Y-121651891D01*
X103482598Y-121651890D01*
X103489373Y-121649966D01*
X103496107Y-121646286D01*
X103516561Y-121637361D01*
X103716431Y-121570506D01*
X103719764Y-121569442D01*
X103753014Y-121559338D01*
X103753023Y-121559335D01*
X103756806Y-121558185D01*
X103761931Y-121555892D01*
X103766801Y-121553834D01*
X103769594Y-121552723D01*
X103772939Y-121551604D01*
X103810468Y-121534188D01*
X103811820Y-121533572D01*
X103884565Y-121501025D01*
X103886395Y-121500322D01*
X103887853Y-121500024D01*
X103891691Y-121498287D01*
X103891706Y-121498281D01*
X103977383Y-121459500D01*
X103977817Y-121459304D01*
X104007677Y-121445945D01*
X104008585Y-121445410D01*
X104009635Y-121444902D01*
X104011610Y-121444008D01*
X104011623Y-121444001D01*
X104015220Y-121442373D01*
X104049190Y-121421513D01*
X104051159Y-121420329D01*
X104117190Y-121381428D01*
X104117191Y-121381427D01*
X104123263Y-121377850D01*
X104127400Y-121373951D01*
X104134436Y-121369164D01*
X104546059Y-121116394D01*
X104548027Y-121115326D01*
X104549615Y-121114778D01*
X104631385Y-121063999D01*
X104631921Y-121063668D01*
X104658069Y-121047611D01*
X104658080Y-121047604D01*
X104660944Y-121045845D01*
X104661940Y-121045068D01*
X104663171Y-121044259D01*
X104665015Y-121043114D01*
X104665016Y-121043113D01*
X104668384Y-121041022D01*
X104699119Y-121016098D01*
X104700988Y-121014612D01*
X104761167Y-120967673D01*
X104766725Y-120963338D01*
X104770443Y-120958786D01*
X104777061Y-120952891D01*
X104905718Y-120848558D01*
X105284606Y-120541301D01*
X105287409Y-120539093D01*
X105314808Y-120518132D01*
X105317952Y-120515727D01*
X105320780Y-120512937D01*
X105321934Y-120511799D01*
X105325849Y-120508286D01*
X105325756Y-120508183D01*
X105328348Y-120505829D01*
X105331092Y-120503604D01*
X105359789Y-120474463D01*
X105360973Y-120473278D01*
X105924369Y-119917367D01*
X105928211Y-119913732D01*
X105948706Y-119895141D01*
X105948711Y-119895136D01*
X105951641Y-119892478D01*
X105959411Y-119883409D01*
X105966582Y-119875714D01*
X105971116Y-119871241D01*
X105991883Y-119845581D01*
X105994101Y-119842918D01*
X106260353Y-119532146D01*
X106525013Y-119223231D01*
X106528638Y-119219180D01*
X106547140Y-119199381D01*
X106549837Y-119196495D01*
X106557156Y-119186370D01*
X106563578Y-119178217D01*
X106568076Y-119172967D01*
X106586288Y-119146157D01*
X106588355Y-119143208D01*
X106845805Y-118787046D01*
X106901923Y-118743556D01*
X106968761Y-118736596D01*
X106974448Y-118737550D01*
X106985171Y-118739348D01*
X106990585Y-118740378D01*
X107008920Y-118744284D01*
X107019654Y-118746571D01*
X107030300Y-118747470D01*
X107031839Y-118747600D01*
X107042070Y-118748888D01*
X107086795Y-118756387D01*
X107093743Y-118757552D01*
X107100774Y-118757149D01*
X107100777Y-118757149D01*
X107118131Y-118756154D01*
X107135946Y-118756394D01*
X107176546Y-118759823D01*
X107191870Y-118761117D01*
X107210715Y-118764161D01*
X107223018Y-118767119D01*
X107223024Y-118767120D01*
X107229868Y-118768765D01*
X107287037Y-118769480D01*
X107296063Y-118769918D01*
X107303789Y-118770571D01*
X107303800Y-118770571D01*
X107307300Y-118770867D01*
X107310805Y-118770771D01*
X107310812Y-118770771D01*
X107333145Y-118770158D01*
X107338177Y-118770121D01*
X107350345Y-118770273D01*
X107369664Y-118770515D01*
X107373595Y-118770068D01*
X107373603Y-118770068D01*
X107380073Y-118769333D01*
X107390837Y-118768575D01*
X107417270Y-118767849D01*
X107441403Y-118767187D01*
X107448221Y-118765440D01*
X107448228Y-118765439D01*
X107466815Y-118760676D01*
X107483863Y-118757539D01*
X107598775Y-118744482D01*
X107601083Y-118744344D01*
X107602812Y-118744526D01*
X107607663Y-118743949D01*
X107607668Y-118743949D01*
X107698205Y-118733185D01*
X107698855Y-118733110D01*
X107704954Y-118732417D01*
X107732712Y-118729263D01*
X107734002Y-118728968D01*
X107735503Y-118728751D01*
X107741642Y-118728021D01*
X107780130Y-118718439D01*
X107782222Y-118717939D01*
X107863488Y-118699353D01*
X107868831Y-118696784D01*
X107877422Y-118694218D01*
X107927702Y-118681700D01*
X108070051Y-118646261D01*
X108075580Y-118645018D01*
X108104895Y-118639123D01*
X108117786Y-118634793D01*
X108127459Y-118631969D01*
X108131847Y-118630877D01*
X108131855Y-118630874D01*
X108135263Y-118630026D01*
X108148194Y-118625222D01*
X108172482Y-118618866D01*
X108172816Y-118618814D01*
X108174214Y-118618594D01*
X108174217Y-118618593D01*
X108181169Y-118617499D01*
X108187711Y-118614889D01*
X108187713Y-118614889D01*
X108241475Y-118593445D01*
X108248014Y-118591045D01*
X108265707Y-118585101D01*
X108268907Y-118583611D01*
X108282289Y-118577380D01*
X108288798Y-118574569D01*
X108307347Y-118567171D01*
X108307357Y-118567166D01*
X108311028Y-118565702D01*
X108326711Y-118557028D01*
X108334489Y-118553073D01*
X108387322Y-118528472D01*
X108402025Y-118517080D01*
X108418215Y-118506422D01*
X108662118Y-118371529D01*
X108675613Y-118365080D01*
X108701581Y-118354514D01*
X108708111Y-118351857D01*
X108736008Y-118332366D01*
X108745860Y-118325483D01*
X108748310Y-118323859D01*
X108750164Y-118322834D01*
X108783664Y-118299075D01*
X108784381Y-118298570D01*
X108819482Y-118274046D01*
X108822717Y-118271786D01*
X108824292Y-118270361D01*
X108826629Y-118268604D01*
X108853838Y-118249306D01*
X108853841Y-118249304D01*
X108859590Y-118245226D01*
X108864291Y-118239979D01*
X108864296Y-118239974D01*
X108887367Y-118214220D01*
X108896676Y-118204864D01*
X109146053Y-117979215D01*
X109162148Y-117966855D01*
X109169014Y-117962413D01*
X109169015Y-117962412D01*
X109174926Y-117958588D01*
X109218018Y-117914426D01*
X109223659Y-117908993D01*
X109232635Y-117900871D01*
X109235249Y-117898506D01*
X109249433Y-117882450D01*
X109253645Y-117877915D01*
X109272565Y-117858525D01*
X109274961Y-117855357D01*
X109281527Y-117846675D01*
X109287597Y-117839253D01*
X109319406Y-117803248D01*
X109324070Y-117797969D01*
X109327446Y-117791792D01*
X109327451Y-117791785D01*
X109334500Y-117778887D01*
X109344564Y-117763317D01*
X109545803Y-117497209D01*
X109556283Y-117485047D01*
X109573044Y-117467933D01*
X109573045Y-117467932D01*
X109577974Y-117462899D01*
X109601979Y-117423883D01*
X109604950Y-117419543D01*
X109604840Y-117419469D01*
X109606809Y-117416538D01*
X109608925Y-117413740D01*
X109627885Y-117381804D01*
X109628836Y-117380232D01*
X109651236Y-117343825D01*
X109652866Y-117340233D01*
X109654042Y-117338021D01*
X109656942Y-117332863D01*
X109673815Y-117304444D01*
X109673817Y-117304439D01*
X109677411Y-117298386D01*
X109688947Y-117262665D01*
X109694102Y-117249340D01*
X109815132Y-116982562D01*
X109820605Y-116971884D01*
X109840046Y-116938023D01*
X109840049Y-116938017D01*
X109843556Y-116931908D01*
X109846160Y-116923424D01*
X109867676Y-116853322D01*
X109868299Y-116851350D01*
X109891520Y-116779893D01*
X109893698Y-116773192D01*
X109898472Y-116720760D01*
X109899815Y-116710605D01*
X109918076Y-116605567D01*
X109952416Y-116408044D01*
X109953058Y-116405238D01*
X109953880Y-116403231D01*
X109969293Y-116310978D01*
X109969418Y-116310247D01*
X109974880Y-116278837D01*
X109974882Y-116278819D01*
X109975484Y-116275357D01*
X109975589Y-116273624D01*
X109975889Y-116271505D01*
X109976920Y-116265335D01*
X109978477Y-116226323D01*
X109978607Y-116223738D01*
X109983161Y-116148477D01*
X109983161Y-116148475D01*
X109983586Y-116141449D01*
X109982559Y-116135204D01*
X109982503Y-116125464D01*
X109999026Y-115711525D01*
X109999202Y-115708212D01*
X110001555Y-115672740D01*
X110001555Y-115672732D01*
X110001816Y-115668797D01*
X110001471Y-115662992D01*
X110001264Y-115657518D01*
X110001240Y-115656043D01*
X110001381Y-115652518D01*
X109998351Y-115610391D01*
X109998253Y-115608906D01*
X109990380Y-115476568D01*
X109967605Y-115093777D01*
X109967513Y-115092014D01*
X109965590Y-115049445D01*
X109965412Y-115045497D01*
X109964456Y-115039953D01*
X109964367Y-115039334D01*
X109964345Y-115038972D01*
X109941500Y-114906778D01*
X109941487Y-114906748D01*
X109941453Y-114906599D01*
X109928144Y-114829438D01*
X109876833Y-114531974D01*
X109876202Y-114527929D01*
X109871735Y-114495838D01*
X109871734Y-114495831D01*
X109871189Y-114491919D01*
X109869225Y-114484654D01*
X109867790Y-114478157D01*
X109867751Y-114478166D01*
X109866960Y-114474733D01*
X109866362Y-114471268D01*
X109865384Y-114467898D01*
X109865381Y-114467886D01*
X109855721Y-114434609D01*
X109855091Y-114432363D01*
X109839119Y-114373273D01*
X109838585Y-114371225D01*
X109828686Y-114331901D01*
X109828683Y-114331893D01*
X109827719Y-114328062D01*
X109825580Y-114322582D01*
X109824934Y-114320791D01*
X109824593Y-114319530D01*
X109803973Y-114267253D01*
X109743511Y-114112418D01*
X109671716Y-113928558D01*
X109668362Y-113918679D01*
X109667228Y-113912098D01*
X109664526Y-113905598D01*
X109664524Y-113905593D01*
X109635841Y-113836607D01*
X109634816Y-113834065D01*
X109622796Y-113803282D01*
X109621157Y-113800164D01*
X109619724Y-113797023D01*
X109616746Y-113790679D01*
X109615075Y-113786662D01*
X109613554Y-113783004D01*
X109611590Y-113779572D01*
X109611586Y-113779563D01*
X109597212Y-113754441D01*
X109595048Y-113750497D01*
X109563654Y-113690777D01*
X109563651Y-113690773D01*
X109560373Y-113684537D01*
X109555795Y-113679182D01*
X109551843Y-113673352D01*
X109552066Y-113673201D01*
X109544943Y-113663086D01*
X109393120Y-113397732D01*
X109389163Y-113390005D01*
X109387371Y-113384504D01*
X109344482Y-113312685D01*
X109343381Y-113310802D01*
X109326401Y-113281123D01*
X109324328Y-113278288D01*
X109322407Y-113275327D01*
X109322469Y-113275287D01*
X109319217Y-113270377D01*
X109315690Y-113264471D01*
X109294580Y-113237495D01*
X109292123Y-113234248D01*
X109247214Y-113172834D01*
X109241900Y-113168210D01*
X109237136Y-113163025D01*
X109237448Y-113162738D01*
X109229656Y-113154527D01*
X109050660Y-112925788D01*
X109040378Y-112910455D01*
X109032961Y-112897421D01*
X109029479Y-112891301D01*
X108992484Y-112850844D01*
X108986250Y-112843477D01*
X108982877Y-112839167D01*
X108982863Y-112839151D01*
X108980693Y-112836378D01*
X108960978Y-112816277D01*
X108957948Y-112813077D01*
X108937801Y-112791045D01*
X108935133Y-112788127D01*
X108928892Y-112782823D01*
X108920545Y-112775052D01*
X108886757Y-112740602D01*
X108862737Y-112725149D01*
X108849320Y-112715200D01*
X108843972Y-112710655D01*
X108681631Y-112572691D01*
X108669937Y-112560770D01*
X108666400Y-112557313D01*
X108661941Y-112551858D01*
X108656389Y-112547530D01*
X108656383Y-112547524D01*
X108625690Y-112523597D01*
X108612444Y-112511673D01*
X108607820Y-112506876D01*
X108607817Y-112506874D01*
X108602932Y-112501806D01*
X108576985Y-112484792D01*
X108575766Y-112483982D01*
X108572814Y-112481994D01*
X108565730Y-112476857D01*
X108554799Y-112468336D01*
X108551678Y-112465903D01*
X108548282Y-112463884D01*
X108548274Y-112463878D01*
X108531148Y-112453694D01*
X108525191Y-112449922D01*
X108471642Y-112413858D01*
X108465075Y-112411316D01*
X108458826Y-112408055D01*
X108459544Y-112406679D01*
X108409789Y-112368467D01*
X108385800Y-112301646D01*
X108401745Y-112232463D01*
X108405783Y-112225966D01*
X108406415Y-112224776D01*
X108410394Y-112218961D01*
X108417373Y-112201317D01*
X108425775Y-112184054D01*
X108435354Y-112167677D01*
X108437476Y-112160958D01*
X108437480Y-112160948D01*
X108452510Y-112113348D01*
X108455495Y-112104942D01*
X108473859Y-112058515D01*
X108473860Y-112058513D01*
X108476452Y-112051959D01*
X108479349Y-112033203D01*
X108483719Y-112014505D01*
X108489430Y-111996420D01*
X108494122Y-111939632D01*
X108495171Y-111930775D01*
X108497191Y-111917698D01*
X108497795Y-111913790D01*
X108498452Y-111889998D01*
X108498471Y-111889314D01*
X108498851Y-111882417D01*
X108503640Y-111824462D01*
X108503640Y-111824460D01*
X108504220Y-111817440D01*
X108502563Y-111805763D01*
X108501362Y-111784588D01*
X108522038Y-111035715D01*
X108522342Y-111029786D01*
X108522539Y-111027161D01*
X108523080Y-111023251D01*
X108523598Y-110979750D01*
X108523637Y-110977794D01*
X108524585Y-110943480D01*
X108524585Y-110943473D01*
X108524682Y-110939952D01*
X108524385Y-110936435D01*
X108524286Y-110932928D01*
X108524415Y-110932924D01*
X108524220Y-110927567D01*
X108528591Y-110560874D01*
X108528949Y-110552764D01*
X108530537Y-110532069D01*
X108529845Y-110517981D01*
X108530579Y-110496882D01*
X108531184Y-110491807D01*
X108532018Y-110484812D01*
X108525243Y-110420347D01*
X108524705Y-110413363D01*
X108522525Y-110369018D01*
X108517351Y-110263736D01*
X108517355Y-110258395D01*
X108517974Y-110254613D01*
X108512603Y-110166911D01*
X108512519Y-110165398D01*
X108510756Y-110129533D01*
X108510221Y-110126237D01*
X108509804Y-110121223D01*
X108509669Y-110119019D01*
X108509669Y-110119018D01*
X108509427Y-110115067D01*
X108502558Y-110078733D01*
X108501997Y-110075532D01*
X108490404Y-110004066D01*
X108489276Y-109997111D01*
X108486635Y-109990579D01*
X108485796Y-109987576D01*
X108483340Y-109977070D01*
X108470468Y-109908980D01*
X108468704Y-109895962D01*
X108465835Y-109861271D01*
X108465834Y-109861267D01*
X108465254Y-109854252D01*
X108450727Y-109808256D01*
X108439226Y-109771840D01*
X108438949Y-109770952D01*
X108415631Y-109695178D01*
X108415631Y-109695177D01*
X108413559Y-109688445D01*
X108410049Y-109682343D01*
X108410046Y-109682335D01*
X108389421Y-109646474D01*
X108384199Y-109636365D01*
X108375779Y-109618082D01*
X108352529Y-109567598D01*
X108351063Y-109564283D01*
X108340927Y-109540412D01*
X108333162Y-109514905D01*
X108320302Y-109447848D01*
X108318561Y-109435489D01*
X108296182Y-109188555D01*
X108295787Y-109182659D01*
X108293547Y-109131151D01*
X108281173Y-108846726D01*
X108277850Y-108770333D01*
X108277765Y-108767794D01*
X108268748Y-108381126D01*
X108268734Y-108380461D01*
X108246520Y-107148978D01*
X108247386Y-107131790D01*
X108249711Y-107112287D01*
X108249711Y-107112285D01*
X108250545Y-107105291D01*
X108245303Y-107055419D01*
X108244636Y-107044549D01*
X108244555Y-107040082D01*
X108240315Y-107007588D01*
X108239948Y-107004470D01*
X108238184Y-106987680D01*
X108231773Y-106926684D01*
X108229504Y-106920017D01*
X108229169Y-106918496D01*
X108229052Y-106917825D01*
X108228676Y-106916213D01*
X108228480Y-106915543D01*
X108228111Y-106914043D01*
X108227199Y-106907056D01*
X108200149Y-106833669D01*
X108199096Y-106830697D01*
X108176168Y-106763345D01*
X108173897Y-106756674D01*
X108170202Y-106750668D01*
X108169549Y-106749280D01*
X108169274Y-106748623D01*
X108168564Y-106747161D01*
X108168225Y-106746553D01*
X108167525Y-106745158D01*
X108165089Y-106738548D01*
X108161250Y-106732644D01*
X108161246Y-106732636D01*
X108122456Y-106672982D01*
X108120770Y-106670318D01*
X108083487Y-106609714D01*
X108083484Y-106609710D01*
X108079794Y-106603712D01*
X108074862Y-106598676D01*
X108073921Y-106597472D01*
X108073515Y-106596903D01*
X108072471Y-106595600D01*
X108072011Y-106595088D01*
X108071030Y-106593895D01*
X108067189Y-106587987D01*
X108062134Y-106583077D01*
X108011085Y-106533492D01*
X108008851Y-106531268D01*
X108006347Y-106528711D01*
X107954141Y-106475399D01*
X107948222Y-106471585D01*
X107947016Y-106470601D01*
X107946507Y-106470148D01*
X107945207Y-106469114D01*
X107944640Y-106468713D01*
X107943418Y-106467766D01*
X107938365Y-106462858D01*
X107932348Y-106459190D01*
X107932344Y-106459187D01*
X107871608Y-106422163D01*
X107868935Y-106420488D01*
X107859365Y-106414320D01*
X107815032Y-106385749D01*
X107809103Y-106381928D01*
X107809102Y-106381927D01*
X107803183Y-106378113D01*
X107796569Y-106375705D01*
X107795156Y-106375004D01*
X107794559Y-106374675D01*
X107793095Y-106373971D01*
X107792441Y-106373700D01*
X107791034Y-106373045D01*
X107785020Y-106369379D01*
X107778345Y-106367137D01*
X107778343Y-106367136D01*
X107732113Y-106351608D01*
X107710886Y-106344478D01*
X107707926Y-106343442D01*
X107641050Y-106319101D01*
X107641047Y-106319100D01*
X107634422Y-106316689D01*
X107627426Y-106315805D01*
X107625927Y-106315443D01*
X107625255Y-106315249D01*
X107623654Y-106314883D01*
X107622957Y-106314764D01*
X107621459Y-106314441D01*
X107614776Y-106312196D01*
X107537003Y-106304342D01*
X107533875Y-106303987D01*
X107533788Y-106303976D01*
X107495717Y-106299167D01*
X107491756Y-106299167D01*
X107490359Y-106299079D01*
X107479438Y-106298529D01*
X107476368Y-106298219D01*
X107436095Y-106294152D01*
X107429108Y-106295014D01*
X107429106Y-106295014D01*
X107403130Y-106298219D01*
X107387702Y-106299167D01*
X107020099Y-106299167D01*
X106997744Y-106297168D01*
X106997728Y-106297165D01*
X106990666Y-106295892D01*
X106983629Y-106296209D01*
X106983628Y-106296209D01*
X106920825Y-106299039D01*
X106915153Y-106299167D01*
X106891845Y-106299167D01*
X106878451Y-106300670D01*
X106870097Y-106301325D01*
X106837699Y-106302785D01*
X106811257Y-106303976D01*
X106804469Y-106305843D01*
X106804464Y-106305844D01*
X106794827Y-106308495D01*
X106775458Y-106312222D01*
X106758528Y-106314121D01*
X106742441Y-106319723D01*
X106702898Y-106333493D01*
X106694881Y-106335988D01*
X106638098Y-106351608D01*
X106631887Y-106354935D01*
X106631881Y-106354938D01*
X106623082Y-106359652D01*
X106605019Y-106367578D01*
X106599848Y-106369379D01*
X106588927Y-106373182D01*
X106538974Y-106404396D01*
X106531709Y-106408605D01*
X106491298Y-106430256D01*
X106479795Y-106436419D01*
X106474479Y-106441037D01*
X106474473Y-106441041D01*
X106466933Y-106447591D01*
X106451072Y-106459323D01*
X106436625Y-106468351D01*
X106394823Y-106509862D01*
X106388691Y-106515558D01*
X106344215Y-106554194D01*
X106334146Y-106567942D01*
X106321283Y-106582891D01*
X106314190Y-106589934D01*
X106314187Y-106589938D01*
X106309193Y-106594897D01*
X106285197Y-106632709D01*
X106277636Y-106644623D01*
X106272912Y-106651546D01*
X106238097Y-106699080D01*
X106235297Y-106705545D01*
X106235295Y-106705548D01*
X106231324Y-106714716D01*
X106222091Y-106732147D01*
X106212963Y-106746531D01*
X106206976Y-106763345D01*
X106193205Y-106802017D01*
X106190126Y-106809829D01*
X106172152Y-106851326D01*
X106126723Y-106905885D01*
X106059008Y-106927222D01*
X105990508Y-106908562D01*
X105986324Y-106905555D01*
X105986248Y-106905670D01*
X105980369Y-106901792D01*
X105974957Y-106897282D01*
X105968679Y-106894082D01*
X105950627Y-106884880D01*
X105936000Y-106876131D01*
X105423229Y-106520211D01*
X105408105Y-106507872D01*
X105400111Y-106500247D01*
X105400110Y-106500246D01*
X105395013Y-106495384D01*
X105344561Y-106465248D01*
X105337325Y-106460584D01*
X105329663Y-106455266D01*
X105329659Y-106455263D01*
X105326761Y-106453252D01*
X105316276Y-106447591D01*
X105305402Y-106441720D01*
X105300647Y-106439018D01*
X105278381Y-106425718D01*
X105278377Y-106425716D01*
X105274987Y-106423691D01*
X105271375Y-106422109D01*
X105271367Y-106422105D01*
X105263966Y-106418864D01*
X105254652Y-106414320D01*
X105214916Y-106392866D01*
X105214913Y-106392865D01*
X105208714Y-106389518D01*
X105184990Y-106382910D01*
X105168258Y-106376949D01*
X104886665Y-106253628D01*
X104596962Y-106126754D01*
X104579381Y-106117331D01*
X104565502Y-106108410D01*
X104508712Y-106087817D01*
X104501122Y-106084782D01*
X104487947Y-106079012D01*
X104484591Y-106077970D01*
X104484586Y-106077968D01*
X104466282Y-106072284D01*
X104460720Y-106070414D01*
X104434069Y-106060750D01*
X104430225Y-106059881D01*
X104430210Y-106059877D01*
X104420787Y-106057748D01*
X104411213Y-106055184D01*
X104359828Y-106039229D01*
X104352804Y-106038682D01*
X104352803Y-106038682D01*
X104343136Y-106037930D01*
X104336869Y-106037442D01*
X104318882Y-106034724D01*
X103703015Y-105895575D01*
X103683881Y-105889618D01*
X103675426Y-105886227D01*
X103675424Y-105886226D01*
X103668888Y-105883605D01*
X103651819Y-105880885D01*
X103608880Y-105874041D01*
X103600948Y-105872514D01*
X103590036Y-105870049D01*
X103590035Y-105870049D01*
X103586592Y-105869271D01*
X103583089Y-105868882D01*
X103583075Y-105868880D01*
X103564394Y-105866807D01*
X103558461Y-105866006D01*
X103534728Y-105862224D01*
X103534723Y-105862223D01*
X103530823Y-105861602D01*
X103526876Y-105861474D01*
X103526875Y-105861474D01*
X103525520Y-105861430D01*
X103516889Y-105861150D01*
X103507093Y-105860450D01*
X103453257Y-105854477D01*
X103446263Y-105855270D01*
X103446257Y-105855270D01*
X103430719Y-105857032D01*
X103412446Y-105857768D01*
X102765554Y-105836816D01*
X102745783Y-105834604D01*
X102729408Y-105831446D01*
X102669193Y-105833427D01*
X102660979Y-105833429D01*
X102646766Y-105832969D01*
X102643272Y-105833247D01*
X102643264Y-105833247D01*
X102623993Y-105834779D01*
X102618153Y-105835107D01*
X102593626Y-105835914D01*
X102593625Y-105835914D01*
X102589676Y-105836044D01*
X102577861Y-105837933D01*
X102576409Y-105838165D01*
X102566507Y-105839348D01*
X102539090Y-105841528D01*
X102513035Y-105843599D01*
X102506312Y-105845699D01*
X102506306Y-105845700D01*
X102490894Y-105850514D01*
X102473224Y-105854664D01*
X102361587Y-105872514D01*
X101798022Y-105962623D01*
X101779732Y-105964193D01*
X101760040Y-105964442D01*
X101753188Y-105966090D01*
X101753189Y-105966090D01*
X101725885Y-105972657D01*
X101719527Y-105973830D01*
X101719552Y-105973959D01*
X101715676Y-105974710D01*
X101711740Y-105975219D01*
X101705548Y-105976828D01*
X101699859Y-105978017D01*
X101699880Y-105978116D01*
X101696429Y-105978868D01*
X101692963Y-105979422D01*
X101663360Y-105987623D01*
X101659216Y-105988695D01*
X101627955Y-105996214D01*
X101627953Y-105996215D01*
X101624110Y-105997139D01*
X101620411Y-105998538D01*
X101620403Y-105998541D01*
X101618550Y-105999242D01*
X101616450Y-105999975D01*
X101614969Y-106000360D01*
X101611690Y-106001616D01*
X101608336Y-106002691D01*
X101608304Y-106002591D01*
X101602860Y-106004382D01*
X101570475Y-106013354D01*
X101570472Y-106013355D01*
X101563679Y-106015237D01*
X101557473Y-106018576D01*
X101557474Y-106018576D01*
X101541161Y-106027354D01*
X101526047Y-106034243D01*
X101319961Y-106112220D01*
X100914763Y-106265535D01*
X100897567Y-106270674D01*
X100874227Y-106275870D01*
X100867855Y-106278889D01*
X100867852Y-106278890D01*
X100826389Y-106298534D01*
X100817042Y-106302510D01*
X100810317Y-106305054D01*
X100783566Y-106318758D01*
X100780149Y-106320442D01*
X100747883Y-106335729D01*
X100744537Y-106337865D01*
X100742531Y-106339145D01*
X100732184Y-106345080D01*
X100703738Y-106359652D01*
X100690919Y-106366219D01*
X100672148Y-106381928D01*
X100667582Y-106385749D01*
X100654511Y-106395329D01*
X100466151Y-106515561D01*
X100108515Y-106743844D01*
X100091821Y-106752808D01*
X100073357Y-106760998D01*
X100042569Y-106783965D01*
X100027929Y-106794886D01*
X100020404Y-106800085D01*
X100011291Y-106805902D01*
X100008561Y-106808108D01*
X100008562Y-106808108D01*
X99990808Y-106822459D01*
X99986941Y-106825461D01*
X99964479Y-106842218D01*
X99964472Y-106842224D01*
X99961295Y-106844594D01*
X99954091Y-106851532D01*
X99945929Y-106858737D01*
X99906961Y-106890237D01*
X99902600Y-106895769D01*
X99902595Y-106895774D01*
X99890416Y-106911224D01*
X99878864Y-106923980D01*
X99869222Y-106933265D01*
X99806280Y-106966109D01*
X99735572Y-106959709D01*
X99679549Y-106916098D01*
X99667097Y-106894600D01*
X99665337Y-106890724D01*
X99660229Y-106877554D01*
X99649702Y-106845129D01*
X99649701Y-106845128D01*
X99647526Y-106838427D01*
X99626153Y-106802553D01*
X99619674Y-106790161D01*
X99604540Y-106756834D01*
X99604538Y-106756830D01*
X99601626Y-106750418D01*
X99575611Y-106716172D01*
X99567707Y-106704454D01*
X99559215Y-106690200D01*
X99559211Y-106690194D01*
X99555606Y-106684144D01*
X99550750Y-106679043D01*
X99546489Y-106673426D01*
X99546789Y-106673199D01*
X99540827Y-106665695D01*
X99533258Y-106654184D01*
X99533254Y-106654179D01*
X99529384Y-106648294D01*
X99516668Y-106636069D01*
X99503661Y-106621458D01*
X99492990Y-106607410D01*
X99448303Y-106569942D01*
X99441943Y-106564230D01*
X99438363Y-106560788D01*
X99437260Y-106559679D01*
X99436857Y-106559341D01*
X99436413Y-106558914D01*
X99436241Y-106558656D01*
X99434440Y-106556845D01*
X99431801Y-106554073D01*
X99432654Y-106553261D01*
X99431692Y-106551813D01*
X99430412Y-106553144D01*
X99425646Y-106548562D01*
X99399919Y-106523829D01*
X99371662Y-106506802D01*
X99333528Y-106483823D01*
X99330345Y-106481840D01*
X99311822Y-106469913D01*
X99217894Y-106409431D01*
X99214558Y-106407206D01*
X99151736Y-106363842D01*
X99102601Y-106344173D01*
X99093503Y-106340104D01*
X99046096Y-106316594D01*
X99023661Y-106311175D01*
X99006429Y-106305676D01*
X98991550Y-106299720D01*
X98991546Y-106299719D01*
X98985006Y-106297101D01*
X98956919Y-106292645D01*
X98932773Y-106288813D01*
X98922948Y-106286851D01*
X98871525Y-106274431D01*
X98864475Y-106274335D01*
X98864473Y-106274335D01*
X98787704Y-106273293D01*
X98785422Y-106273242D01*
X98777944Y-106273005D01*
X98653762Y-106269067D01*
X98641360Y-106268058D01*
X98611450Y-106264128D01*
X98604351Y-106263195D01*
X98604350Y-106263195D01*
X98597371Y-106262278D01*
X98513777Y-106270052D01*
X98512232Y-106270186D01*
X98486888Y-106272218D01*
X98435626Y-106276328D01*
X98435623Y-106276329D01*
X98428609Y-106276891D01*
X98423690Y-106278431D01*
X98418551Y-106278909D01*
X98411850Y-106281101D01*
X98411845Y-106281102D01*
X98338770Y-106305006D01*
X98337240Y-106305496D01*
X98257222Y-106330548D01*
X98251135Y-106334089D01*
X98251127Y-106334092D01*
X98213201Y-106356151D01*
X98203727Y-106361135D01*
X98097431Y-106411413D01*
X98094682Y-106412673D01*
X98021062Y-106445355D01*
X98015419Y-106449567D01*
X98015414Y-106449570D01*
X97981669Y-106474757D01*
X97972537Y-106480969D01*
X97936728Y-106503097D01*
X97936725Y-106503099D01*
X97930733Y-106506802D01*
X97925713Y-106511738D01*
X97925706Y-106511743D01*
X97911603Y-106525609D01*
X97898636Y-106536734D01*
X97877140Y-106552778D01*
X97872569Y-106558137D01*
X97872567Y-106558139D01*
X97864838Y-106567201D01*
X97845239Y-106590179D01*
X97837731Y-106598239D01*
X97802670Y-106632709D01*
X97798866Y-106638637D01*
X97798863Y-106638641D01*
X97759348Y-106700224D01*
X97748654Y-106714543D01*
X97730212Y-106735893D01*
X97726902Y-106742112D01*
X97726901Y-106742114D01*
X97707720Y-106778156D01*
X97704279Y-106783965D01*
X97704298Y-106783976D01*
X97702535Y-106787022D01*
X97700607Y-106789961D01*
X97699022Y-106793091D01*
X97699017Y-106793099D01*
X97684788Y-106821192D01*
X97683627Y-106823427D01*
X97645839Y-106894432D01*
X97644055Y-106900986D01*
X97644020Y-106901081D01*
X97643100Y-106903474D01*
X97643058Y-106903580D01*
X97639990Y-106909638D01*
X97638279Y-106916468D01*
X97638278Y-106916471D01*
X97620441Y-106987680D01*
X97619797Y-106990143D01*
X97609134Y-107029335D01*
X97608580Y-107033268D01*
X97607784Y-107037138D01*
X97607691Y-107037119D01*
X97606395Y-107043756D01*
X97598064Y-107077014D01*
X97598063Y-107077019D01*
X97596353Y-107083847D01*
X97595572Y-107119299D01*
X97594370Y-107134107D01*
X97586840Y-107187538D01*
X97585959Y-107192939D01*
X97580328Y-107223256D01*
X97580099Y-107227208D01*
X97579593Y-107235929D01*
X97578571Y-107246221D01*
X97577576Y-107253279D01*
X97577477Y-107256791D01*
X97576667Y-107285400D01*
X97576505Y-107289136D01*
X97564707Y-107492429D01*
X97563381Y-107504752D01*
X97562630Y-107509515D01*
X97562508Y-107513466D01*
X97562508Y-107513470D01*
X97561457Y-107547629D01*
X97561306Y-107551032D01*
X97559419Y-107583543D01*
X97559726Y-107589239D01*
X97559848Y-107599893D01*
X97551351Y-107875845D01*
X97550849Y-107881653D01*
X97551032Y-107881667D01*
X97550729Y-107885625D01*
X97550180Y-107889537D01*
X97550126Y-107893489D01*
X97549593Y-107932377D01*
X97549546Y-107934489D01*
X97548399Y-107971728D01*
X97548684Y-107975242D01*
X97548772Y-107978762D01*
X97548680Y-107978764D01*
X97548876Y-107984593D01*
X97544212Y-108324517D01*
X97544023Y-108329262D01*
X97543613Y-108332427D01*
X97543559Y-108349774D01*
X97543469Y-108378202D01*
X97543458Y-108379535D01*
X97543442Y-108380743D01*
X97542905Y-108419836D01*
X97543217Y-108423009D01*
X97543312Y-108427902D01*
X97542847Y-108575595D01*
X97542842Y-108576411D01*
X97537720Y-109108645D01*
X97537617Y-109112675D01*
X97523300Y-109454289D01*
X97522564Y-109463574D01*
X97519665Y-109488390D01*
X97516670Y-109514028D01*
X97507735Y-109547447D01*
X97505409Y-109551529D01*
X97503364Y-109558271D01*
X97494356Y-109587964D01*
X97489498Y-109601243D01*
X97486402Y-109608426D01*
X97481745Y-109618077D01*
X97457729Y-109662869D01*
X97437131Y-109737660D01*
X97436228Y-109740774D01*
X97413657Y-109814991D01*
X97409820Y-109868315D01*
X97409537Y-109872241D01*
X97408574Y-109881165D01*
X97385563Y-110040879D01*
X97384344Y-110047918D01*
X97379480Y-110071938D01*
X97379187Y-110075877D01*
X97379187Y-110075880D01*
X97378090Y-110090649D01*
X97377149Y-110099275D01*
X97375266Y-110112346D01*
X97375155Y-110115866D01*
X97375155Y-110115872D01*
X97374987Y-110121223D01*
X97374727Y-110129533D01*
X97374463Y-110137936D01*
X97374180Y-110143298D01*
X97356069Y-110387136D01*
X97354760Y-110398152D01*
X97353204Y-110407651D01*
X97353059Y-110411606D01*
X97353058Y-110411613D01*
X97351979Y-110441004D01*
X97351719Y-110445692D01*
X97349657Y-110473457D01*
X97349789Y-110476974D01*
X97349789Y-110476980D01*
X97350052Y-110483982D01*
X97350056Y-110493334D01*
X97349385Y-110511610D01*
X97340569Y-110751628D01*
X97340101Y-110764362D01*
X97339094Y-110776284D01*
X97338248Y-110782673D01*
X97338224Y-110786623D01*
X97338224Y-110786627D01*
X97338029Y-110819173D01*
X97337947Y-110823013D01*
X97336810Y-110853948D01*
X97337074Y-110857460D01*
X97337074Y-110857467D01*
X97337361Y-110861291D01*
X97337713Y-110871484D01*
X97336067Y-111144966D01*
X97335495Y-111156218D01*
X97334633Y-111165220D01*
X97335332Y-111188346D01*
X97335658Y-111199147D01*
X97335713Y-111203712D01*
X97335647Y-111214744D01*
X97335542Y-111232077D01*
X97335914Y-111235581D01*
X97335914Y-111235586D01*
X97336592Y-111241973D01*
X97337238Y-111251457D01*
X97344261Y-111483939D01*
X97344789Y-111501423D01*
X97344781Y-111509263D01*
X97344080Y-111531109D01*
X97346074Y-111552352D01*
X97346567Y-111560302D01*
X97347044Y-111576093D01*
X97347541Y-111579571D01*
X97347542Y-111579585D01*
X97350285Y-111598782D01*
X97350998Y-111604809D01*
X97359795Y-111698517D01*
X97364570Y-111749384D01*
X97364956Y-111767616D01*
X97364144Y-111783433D01*
X97364145Y-111783446D01*
X97363784Y-111790479D01*
X97373029Y-111843646D01*
X97374336Y-111853424D01*
X97375102Y-111861582D01*
X97375817Y-111865017D01*
X97375819Y-111865028D01*
X97381019Y-111889998D01*
X97381802Y-111894099D01*
X97383303Y-111902729D01*
X97387735Y-111928220D01*
X97389715Y-111934667D01*
X97389888Y-111935232D01*
X97392791Y-111946527D01*
X97402451Y-111992918D01*
X97414680Y-112019675D01*
X97420533Y-112035073D01*
X97430672Y-112068107D01*
X97432232Y-112073635D01*
X97449605Y-112141055D01*
X97452828Y-112147312D01*
X97452829Y-112147316D01*
X97476701Y-112193667D01*
X97480254Y-112201162D01*
X97484712Y-112211434D01*
X97493487Y-112281884D01*
X97462779Y-112345896D01*
X97425689Y-112372974D01*
X97425913Y-112373352D01*
X97421972Y-112375688D01*
X97421967Y-112375691D01*
X97419848Y-112376948D01*
X97419845Y-112376949D01*
X97375868Y-112403016D01*
X97368175Y-112407222D01*
X97366517Y-112408055D01*
X97357215Y-112412727D01*
X97354266Y-112414647D01*
X97354256Y-112414653D01*
X97345348Y-112420454D01*
X97341343Y-112422820D01*
X97339305Y-112424219D01*
X97333082Y-112427539D01*
X97333080Y-112427541D01*
X97333072Y-112427545D01*
X97332845Y-112427119D01*
X97328938Y-112428398D01*
X97330007Y-112430201D01*
X97305647Y-112444640D01*
X97302519Y-112447071D01*
X97302518Y-112447072D01*
X97296603Y-112451669D01*
X97288034Y-112457773D01*
X97254589Y-112479551D01*
X97244794Y-112485929D01*
X97239887Y-112490987D01*
X97239886Y-112490988D01*
X97227229Y-112504035D01*
X97214128Y-112515775D01*
X96955953Y-112716449D01*
X96948616Y-112721739D01*
X96901166Y-112753421D01*
X96896319Y-112758535D01*
X96896317Y-112758536D01*
X96852046Y-112805239D01*
X96848534Y-112808800D01*
X96805380Y-112850849D01*
X96797388Y-112858636D01*
X96793561Y-112864543D01*
X96793557Y-112864547D01*
X96762764Y-112912069D01*
X96758610Y-112918089D01*
X96524365Y-113237337D01*
X96511886Y-113251880D01*
X96498160Y-113265610D01*
X96494410Y-113271567D01*
X96494405Y-113271573D01*
X96467552Y-113314228D01*
X96462520Y-113321624D01*
X96455678Y-113330950D01*
X96442948Y-113353116D01*
X96440319Y-113357486D01*
X96423676Y-113383924D01*
X96422002Y-113387515D01*
X96422001Y-113387517D01*
X96419137Y-113393662D01*
X96414199Y-113403176D01*
X96388868Y-113447284D01*
X96386801Y-113454017D01*
X96381252Y-113472089D01*
X96375004Y-113488339D01*
X96235944Y-113786662D01*
X96203661Y-113855917D01*
X96198016Y-113865509D01*
X96198412Y-113865734D01*
X96194938Y-113871860D01*
X96190800Y-113877564D01*
X96188029Y-113884043D01*
X96160780Y-113947753D01*
X96159143Y-113951419D01*
X96146913Y-113977655D01*
X96144540Y-113984709D01*
X96140968Y-113994076D01*
X96137381Y-114002461D01*
X96137377Y-114002473D01*
X96135822Y-114006108D01*
X96134735Y-114009909D01*
X96134731Y-114009921D01*
X96128003Y-114033452D01*
X96126282Y-114038985D01*
X96106388Y-114098126D01*
X96104141Y-114104807D01*
X96103430Y-114111817D01*
X96103369Y-114112418D01*
X96099158Y-114134335D01*
X95978917Y-114554867D01*
X95976263Y-114562735D01*
X95973671Y-114567666D01*
X95971857Y-114574471D01*
X95952032Y-114648824D01*
X95951433Y-114650993D01*
X95941986Y-114684031D01*
X95941401Y-114687503D01*
X95940626Y-114690928D01*
X95940537Y-114690908D01*
X95939337Y-114696434D01*
X95937652Y-114702754D01*
X95937119Y-114706678D01*
X95937118Y-114706685D01*
X95933007Y-114736979D01*
X95932408Y-114740922D01*
X95919713Y-114816322D01*
X95920112Y-114823359D01*
X95919724Y-114830388D01*
X95919260Y-114830362D01*
X95918829Y-114841423D01*
X95884815Y-115092014D01*
X95846412Y-115374934D01*
X95845933Y-115378148D01*
X95839563Y-115417444D01*
X95839424Y-115421411D01*
X95839357Y-115423312D01*
X95839042Y-115428830D01*
X95838967Y-115429779D01*
X95838496Y-115433251D01*
X95838415Y-115436759D01*
X95837508Y-115475792D01*
X95837465Y-115477281D01*
X95829164Y-115714060D01*
X95829111Y-115715376D01*
X95827044Y-115760773D01*
X95826864Y-115764727D01*
X94000000Y-115764727D01*
X94000000Y-96126000D01*
X94020002Y-96057879D01*
X94073658Y-96011386D01*
X94126000Y-96000000D01*
X97000000Y-96000000D01*
X97000000Y-89126000D01*
X97020002Y-89057879D01*
X97073658Y-89011386D01*
X97126000Y-89000000D01*
X107874000Y-89000000D01*
X107942121Y-89020002D01*
G37*
%TD.AperFunction*%
%TD*%
%TA.AperFunction,Conductor*%
%TO.N,5V*%
G36*
X153942121Y-77020002D02*
G01*
X153988614Y-77073658D01*
X154000000Y-77126000D01*
X154000000Y-152874000D01*
X153979998Y-152942121D01*
X153926342Y-152988614D01*
X153874000Y-153000000D01*
X131126000Y-153000000D01*
X131057879Y-152979998D01*
X131011386Y-152926342D01*
X131000000Y-152874000D01*
X131000000Y-144126000D01*
X131020002Y-144057879D01*
X131073658Y-144011386D01*
X131126000Y-144000000D01*
X151000000Y-144000000D01*
X151000000Y-113000000D01*
X126126000Y-113000000D01*
X126057879Y-112979998D01*
X126011386Y-112926342D01*
X126000000Y-112874000D01*
X126000000Y-109052190D01*
X126020002Y-108984069D01*
X126036905Y-108963095D01*
X127963095Y-107036905D01*
X128025407Y-107002879D01*
X128052190Y-107000000D01*
X145000000Y-107000000D01*
X145000000Y-93000000D01*
X138134500Y-93000000D01*
X138066379Y-92979998D01*
X138019886Y-92926342D01*
X138008500Y-92874000D01*
X138008500Y-89883999D01*
X138000406Y-89783400D01*
X138000000Y-89773295D01*
X138000000Y-77126000D01*
X138020002Y-77057879D01*
X138073658Y-77011386D01*
X138126000Y-77000000D01*
X153874000Y-77000000D01*
X153942121Y-77020002D01*
G37*
%TD.AperFunction*%
%TD*%
%TA.AperFunction,Conductor*%
%TO.N,Net-(J1-Pad1)*%
G36*
X91942121Y-116020002D02*
G01*
X91988614Y-116073658D01*
X92000000Y-116126000D01*
X92000000Y-137874000D01*
X91979998Y-137942121D01*
X91926342Y-137988614D01*
X91874000Y-138000000D01*
X78126000Y-138000000D01*
X78057879Y-137979998D01*
X78011386Y-137926342D01*
X78000000Y-137874000D01*
X78000000Y-116126000D01*
X78020002Y-116057879D01*
X78073658Y-116011386D01*
X78126000Y-116000000D01*
X91874000Y-116000000D01*
X91942121Y-116020002D01*
G37*
%TD.AperFunction*%
%TD*%
%TA.AperFunction,Conductor*%
%TO.N,Net-(F1-Pad2)*%
G36*
X91942121Y-95020002D02*
G01*
X91988614Y-95073658D01*
X92000000Y-95126000D01*
X92000000Y-113874000D01*
X91979998Y-113942121D01*
X91926342Y-113988614D01*
X91874000Y-114000000D01*
X78126000Y-114000000D01*
X78057879Y-113979998D01*
X78011386Y-113926342D01*
X78000000Y-113874000D01*
X78000000Y-95126000D01*
X78020002Y-95057879D01*
X78073658Y-95011386D01*
X78126000Y-95000000D01*
X91874000Y-95000000D01*
X91942121Y-95020002D01*
G37*
%TD.AperFunction*%
%TD*%
M02*
